<svg width="25" height="24" viewBox="0 0 25 24" fill="none" xmlns="http://www.w3.org/2000/svg">
<g clip-path="url(#clip0_155_9357)">
<path d="M12.1959 5.8467C8.79092 5.8467 6.04292 8.5947 6.04292 11.9997C6.04292 15.4047 8.79092 18.1527 12.1959 18.1527C15.6009 18.1527 18.3489 15.4047 18.3489 11.9997C18.3489 8.5947 15.6009 5.8467 12.1959 5.8467ZM12.1959 15.9987C9.99392 15.9987 8.19692 14.2017 8.19692 11.9997C8.19692 9.7977 9.99392 8.0007 12.1959 8.0007C14.3979 8.0007 16.1949 9.7977 16.1949 11.9997C16.1949 14.2017 14.3979 15.9987 12.1959 15.9987ZM18.6009 4.1607C17.8059 4.1607 17.1639 4.8027 17.1639 5.5977C17.1639 6.3927 17.8059 7.0347 18.6009 7.0347C19.3959 7.0347 20.0379 6.3957 20.0379 5.5977C20.0382 5.40893 20.0012 5.22196 19.929 5.04751C19.8569 4.87306 19.751 4.71455 19.6176 4.58106C19.4841 4.44758 19.3256 4.34174 19.1511 4.26961C18.9767 4.19747 18.7897 4.16047 18.6009 4.1607ZM24.1899 11.9997C24.1899 10.3437 24.2049 8.7027 24.1119 7.0497C24.0189 5.1297 23.5809 3.4257 22.1769 2.0217C20.7699 0.614705 19.0689 0.179705 17.1489 0.0867048C15.4929 -0.00629521 13.8519 0.00870483 12.1989 0.00870483C10.5429 0.00870483 8.90192 -0.00629521 7.24892 0.0867048C5.32892 0.179705 3.62492 0.617705 2.22092 2.0217C0.813923 3.4287 0.378924 5.1297 0.285924 7.0497C0.192924 8.7057 0.207924 10.3467 0.207924 11.9997C0.207924 13.6527 0.192924 15.2967 0.285924 16.9497C0.378924 18.8697 0.816924 20.5737 2.22092 21.9777C3.62792 23.3847 5.32892 23.8197 7.24892 23.9127C8.90492 24.0057 10.5459 23.9907 12.1989 23.9907C13.8549 23.9907 15.4959 24.0057 17.1489 23.9127C19.0689 23.8197 20.7729 23.3817 22.1769 21.9777C23.5839 20.5707 24.0189 18.8697 24.1119 16.9497C24.2079 15.2967 24.1899 13.6557 24.1899 11.9997ZM21.5499 19.0737C21.3309 19.6197 21.0669 20.0277 20.6439 20.4477C20.2209 20.8707 19.8159 21.1347 19.2699 21.3537C17.6919 21.9807 13.9449 21.8397 12.1959 21.8397C10.4469 21.8397 6.69692 21.9807 5.11892 21.3567C4.57292 21.1377 4.16492 20.8737 3.74492 20.4507C3.32192 20.0277 3.05792 19.6227 2.83892 19.0767C2.21492 17.4957 2.35592 13.7487 2.35592 11.9997C2.35592 10.2507 2.21492 6.5007 2.83892 4.9227C3.05792 4.3767 3.32192 3.9687 3.74492 3.5487C4.16792 3.1287 4.57292 2.8617 5.11892 2.6427C6.69692 2.0187 10.4469 2.1597 12.1959 2.1597C13.9449 2.1597 17.6949 2.0187 19.2729 2.6427C19.8189 2.8617 20.2269 3.1257 20.6469 3.5487C21.0699 3.9717 21.3339 4.3767 21.5529 4.9227C22.1769 6.5007 22.0359 10.2507 22.0359 11.9997C22.0359 13.7487 22.1769 17.4957 21.5499 19.0737Z" fill="#E61F5A"/>
</g>
<defs>
<clipPath id="clip0_155_9357">
<rect width="24" height="24" fill="white" transform="translate(0.195312)"/>
</clipPath>
</defs>
</svg>
