<svg width="24" height="25" viewBox="0 0 24 25" fill="none" xmlns="http://www.w3.org/2000/svg">
<g clip-path="url(#clip0_56_9757)">
<path d="M18.8498 12.4767C18.7385 12.3652 18.6062 12.2767 18.4606 12.2163C18.3151 12.156 18.159 12.1249 18.0014 12.1249C17.8438 12.1249 17.6878 12.156 17.5422 12.2163C17.3966 12.2767 17.2644 12.3652 17.153 12.4767L15.2402 14.3895C14.3534 14.1255 12.6987 13.5255 11.6499 12.4767C10.6011 11.4279 10.0011 9.77314 9.73709 8.88635L11.6499 6.97357C11.7614 6.86223 11.8499 6.72998 11.9103 6.58441C11.9706 6.43883 12.0017 6.28278 12.0017 6.12518C12.0017 5.96758 11.9706 5.81153 11.9103 5.66595C11.8499 5.52038 11.7614 5.38813 11.6499 5.27679L6.84992 0.476838C6.73857 0.365304 6.60633 0.276819 6.46075 0.216447C6.31518 0.156075 6.15912 0.125 6.00152 0.125C5.84393 0.125 5.68787 0.156075 5.5423 0.216447C5.39672 0.276819 5.26448 0.365304 5.15313 0.476838L1.89877 3.73121C1.44277 4.1872 1.18597 4.81359 1.19557 5.45319C1.22317 7.16197 1.67557 13.0971 6.35312 17.7747C11.0307 22.4522 16.9658 22.9034 18.6758 22.9322H18.7094C19.343 22.9322 19.9418 22.6826 20.3954 22.229L23.6497 18.9747C23.7613 18.8633 23.8498 18.7311 23.9101 18.5855C23.9705 18.4399 24.0016 18.2839 24.0016 18.1263C24.0016 17.9687 23.9705 17.8126 23.9101 17.667C23.8498 17.5215 23.7613 17.3892 23.6497 17.2779L18.8498 12.4767ZM18.6974 20.531C17.1998 20.5058 12.0759 20.1038 8.0499 16.0767C4.01074 12.0375 3.61955 6.89557 3.59555 5.42799L6.00152 3.02201L9.10469 6.12518L7.55311 7.67677C7.41206 7.8177 7.30836 7.99157 7.25137 8.18264C7.19439 8.37372 7.18591 8.57598 7.22671 8.77115C7.25551 8.90915 7.9599 12.1815 9.95188 14.1735C11.9439 16.1655 15.2162 16.8699 15.3542 16.8987C15.5493 16.9406 15.7518 16.9328 15.943 16.876C16.1343 16.8192 16.3081 16.7151 16.4486 16.5735L18.0014 15.0219L21.1046 18.1251L18.6974 20.531Z" fill="#23A6F0"/>
</g>
<defs>
<clipPath id="clip0_56_9757">
<rect width="24" height="24" fill="white" transform="translate(0 0.125)"/>
</clipPath>
</defs>
</svg>
