<svg width="24" height="31" viewBox="0 0 24 31" fill="none" xmlns="http://www.w3.org/2000/svg">
<path d="M12 18.7498C15.3089 18.7498 17.9999 16.0589 17.9999 12.7499C17.9999 9.44092 15.3089 6.74995 12 6.74995C8.69101 6.74995 6.00004 9.44092 6.00004 12.7499C6.00004 16.0589 8.69101 18.7498 12 18.7498ZM12 9.74992C13.6545 9.74992 14.9999 11.0954 14.9999 12.7499C14.9999 14.4044 13.6545 15.7499 12 15.7499C10.3455 15.7499 9.00001 14.4044 9.00001 12.7499C9.00001 11.0954 10.3455 9.74992 12 9.74992Z" fill="#23A6F0"/>
<path d="M11.13 30.4707C11.3839 30.652 11.688 30.7494 12 30.7494C12.312 30.7494 12.6161 30.652 12.87 30.4707C13.326 30.1482 24.0434 22.4098 23.9999 12.7499C23.9999 6.13344 18.6164 0.75 12 0.75C5.38357 0.75 0.000132055 6.13344 0.000132055 12.7424C-0.0433675 22.4098 10.674 30.1482 11.13 30.4707ZM12 3.74997C16.9634 3.74997 20.9999 7.78642 20.9999 12.7574C21.0314 19.4143 14.418 25.3917 12 27.3522C9.58353 25.3902 2.9686 19.4113 3.0001 12.7499C3.0001 7.78642 7.03655 3.74997 12 3.74997Z" fill="#23A6F0"/>
</svg>
