<svg width="24" height="27" viewBox="0 0 24 27" fill="none" xmlns="http://www.w3.org/2000/svg">
<g clip-path="url(#clip0_56_9765)">
<path fill-rule="evenodd" clip-rule="evenodd" d="M-0.91875 6.09167C-0.75492 5.3554 -0.352185 4.69802 0.223498 4.22718C0.79918 3.75634 1.51369 3.49995 2.25 3.5H21.75C22.4863 3.49995 23.2008 3.75634 23.7765 4.22718C24.3522 4.69802 24.7549 5.3554 24.9187 6.09167L12 14.19L-0.91875 6.09167ZM-1 7.995V19.835L8.42988 13.905L-1 7.995ZM9.98663 14.8833L-0.689625 21.595C-0.425844 22.1655 -0.00951922 22.6474 0.510895 22.9846C1.03131 23.3219 1.63441 23.5006 2.25 23.5H21.75C22.3655 23.5001 22.9684 23.321 23.4885 22.9835C24.0086 22.6459 24.4246 22.1639 24.688 21.5933L14.0118 14.8817L12 16.1433L9.98663 14.8817V14.8833ZM15.5701 13.9067L25 19.835V7.995L15.5701 13.905V13.9067Z" fill="#23A6F0"/>
</g>
<defs>
<clipPath id="clip0_56_9765">
<rect width="24" height="26" fill="white" transform="translate(0 0.375)"/>
</clipPath>
</defs>
</svg>
