<svg width="24" height="27" viewBox="0 0 24 27" fill="none" xmlns="http://www.w3.org/2000/svg">
<g clip-path="url(#clip0_155_9351)">
<path d="M23.711 1.46695C23.576 1.32725 23.4055 1.23052 23.2195 1.18815C23.0335 1.14578 22.8397 1.15951 22.661 1.22775L0.660977 9.54775C0.471245 9.62259 0.307897 9.75569 0.192628 9.92938C0.0773595 10.1031 0.015625 10.3091 0.015625 10.5201C0.015625 10.7312 0.0773595 10.9372 0.192628 11.1109C0.307897 11.2846 0.471245 11.4177 0.660977 11.4925L10.261 15.4861L14.101 25.4701C14.1731 25.6588 14.2968 25.8214 14.4567 25.9378C14.6166 26.0542 14.8058 26.1194 15.001 26.1253C15.2031 26.121 15.3991 26.0531 15.5634 25.9306C15.7276 25.8081 15.8523 25.6367 15.921 25.4389L23.921 2.55895C23.9891 2.37495 24.0055 2.17459 23.9684 1.98125C23.9312 1.78791 23.8419 1.60954 23.711 1.46695ZM15.001 22.1733L12.211 14.8933L17.001 9.91175L15.591 8.44535L10.761 13.4685L3.80098 10.5253L21.331 3.94215L15.001 22.1733Z" fill="#979797"/>
</g>
<defs>
<clipPath id="clip0_155_9351">
<rect width="24" height="26" fill="white" transform="translate(0 0.125)"/>
</clipPath>
</defs>
</svg>
