<svg width="25" height="24" viewBox="0 0 25 24" fill="none" xmlns="http://www.w3.org/2000/svg">
<g clip-path="url(#clip0_155_9355)">
<path d="M23.2353 0H1.15531C0.624312 0 0.195312 0.429 0.195312 0.96V23.04C0.195312 23.571 0.624312 24 1.15531 24H23.2353C23.7663 24 24.1953 23.571 24.1953 23.04V0.96C24.1953 0.429 23.7663 0 23.2353 0ZM20.4633 7.005H18.5463C17.0433 7.005 16.7523 7.719 16.7523 8.769V11.082H20.3403L19.8723 14.703H16.7523V24H13.0113V14.706H9.88231V11.082H13.0113V8.412C13.0113 5.313 14.9043 3.624 17.6703 3.624C18.9963 3.624 20.1333 3.723 20.4663 3.768V7.005H20.4633Z" fill="#335BF5"/>
</g>
<defs>
<clipPath id="clip0_155_9355">
<rect width="24" height="24" fill="white" transform="translate(0.195312)"/>
</clipPath>
</defs>
</svg>
