<svg width="24" height="25" viewBox="0 0 24 25" fill="none" xmlns="http://www.w3.org/2000/svg">
<g clip-path="url(#clip0_155_9342)">
<path d="M18.8498 12.9767C18.7385 12.8652 18.6062 12.7767 18.4606 12.7163C18.3151 12.656 18.159 12.6249 18.0014 12.6249C17.8438 12.6249 17.6878 12.656 17.5422 12.7163C17.3966 12.7767 17.2644 12.8652 17.153 12.9767L15.2402 14.8895C14.3534 14.6255 12.6987 14.0255 11.6499 12.9767C10.6011 11.9279 10.0011 10.2731 9.73709 9.38635L11.6499 7.47357C11.7614 7.36223 11.8499 7.22998 11.9103 7.08441C11.9706 6.93883 12.0017 6.78278 12.0017 6.62518C12.0017 6.46758 11.9706 6.31153 11.9103 6.16595C11.8499 6.02038 11.7614 5.88813 11.6499 5.77679L6.84992 0.976838C6.73857 0.865304 6.60633 0.776819 6.46075 0.716447C6.31518 0.656075 6.15912 0.625 6.00152 0.625C5.84393 0.625 5.68787 0.656075 5.5423 0.716447C5.39672 0.776819 5.26448 0.865304 5.15313 0.976838L1.89877 4.23121C1.44277 4.6872 1.18597 5.31359 1.19557 5.95319C1.22317 7.66197 1.67557 13.5971 6.35312 18.2747C11.0307 22.9522 16.9658 23.4034 18.6758 23.4322H18.7094C19.343 23.4322 19.9418 23.1826 20.3954 22.729L23.6497 19.4747C23.7613 19.3633 23.8498 19.2311 23.9101 19.0855C23.9705 18.9399 24.0016 18.7839 24.0016 18.6263C24.0016 18.4687 23.9705 18.3126 23.9101 18.167C23.8498 18.0215 23.7613 17.8892 23.6497 17.7779L18.8498 12.9767ZM18.6974 21.031C17.1998 21.0058 12.0759 20.6038 8.0499 16.5767C4.01074 12.5375 3.61955 7.39557 3.59555 5.92799L6.00152 3.52201L9.10469 6.62518L7.55311 8.17677C7.41206 8.3177 7.30836 8.49157 7.25137 8.68264C7.19439 8.87372 7.18591 9.07598 7.22671 9.27115C7.25551 9.40915 7.9599 12.6815 9.95188 14.6735C11.9439 16.6655 15.2162 17.3699 15.3542 17.3987C15.5493 17.4406 15.7518 17.4328 15.943 17.376C16.1343 17.3192 16.3081 17.2151 16.4486 17.0735L18.0014 15.5219L21.1046 18.6251L18.6974 21.031Z" fill="#979797"/>
</g>
<defs>
<clipPath id="clip0_155_9342">
<rect width="24" height="24" fill="white" transform="translate(0 0.625)"/>
</clipPath>
</defs>
</svg>
