<svg width="24" height="28" viewBox="0 0 24 28" fill="none" xmlns="http://www.w3.org/2000/svg">
<g clip-path="url(#clip0_155_9346)">
<path d="M11.9999 16.5754C15.3089 16.5754 17.9999 14.1535 17.9999 11.1754C17.9999 8.19729 15.3089 5.77539 11.9999 5.77539C8.69097 5.77539 6 8.19729 6 11.1754C6 14.1535 8.69097 16.5754 11.9999 16.5754ZM11.9999 8.47539C13.6544 8.47539 14.9999 9.68634 14.9999 11.1754C14.9999 12.6644 13.6544 13.8754 11.9999 13.8754C10.3455 13.8754 8.99997 12.6644 8.99997 11.1754C8.99997 9.68634 10.3455 8.47539 11.9999 8.47539Z" fill="#979797"/>
<path d="M11.13 27.1239C11.3839 27.2871 11.688 27.3748 12 27.3748C12.312 27.3748 12.6161 27.2871 12.87 27.1239C13.326 26.8337 24.0434 19.869 23.9999 11.175C23.9999 5.22015 18.6164 0.375 12 0.375C5.38357 0.375 0.000132055 5.22015 0.000132055 11.1683C-0.0433675 19.869 10.674 26.8337 11.13 27.1239ZM12 3.075C16.9634 3.075 20.9999 6.70785 20.9999 11.1818C21.0314 17.1731 14.418 22.5528 12 24.3173C9.58353 22.5515 2.9686 17.1704 3.0001 11.175C3.0001 6.70785 7.03655 3.075 12 3.075Z" fill="#979797"/>
</g>
<defs>
<clipPath id="clip0_155_9346">
<rect width="24" height="27" fill="white" transform="translate(0 0.375)"/>
</clipPath>
</defs>
</svg>
