<svg width="21" height="20" viewBox="0 0 21 20" fill="none" xmlns="http://www.w3.org/2000/svg">
<path d="M5.5 1.66602L3 4.99935V16.666C3 17.108 3.17559 17.532 3.48816 17.8445C3.80072 18.1571 4.22464 18.3327 4.66667 18.3327H16.3333C16.7754 18.3327 17.1993 18.1571 17.5118 17.8445C17.8244 17.532 18 17.108 18 16.666V4.99935L15.5 1.66602H5.5Z" stroke="#C7C8D2" stroke-width="1.5" stroke-linecap="round" stroke-linejoin="round"/>
<path d="M3 5H18" stroke="#C7C8D2" stroke-width="1.5" stroke-linecap="round" stroke-linejoin="round"/>
<path d="M13.8346 8.33398C13.8346 9.21804 13.4834 10.0659 12.8583 10.691C12.2332 11.3161 11.3854 11.6673 10.5013 11.6673C9.61725 11.6673 8.7694 11.3161 8.14428 10.691C7.51916 10.0659 7.16797 9.21804 7.16797 8.33398" stroke="#C7C8D2" stroke-width="1.5" stroke-linecap="round" stroke-linejoin="round"/>
</svg>
